<?xml version="1.0" encoding="UTF-8"?>
<svg xmlns="http://www.w3.org/2000/svg" viewBox="0 0 512 512" role="img" aria-labelledby="title desc">
  <title id="title">DJ Scrobbler neon night icon</title>
  <desc id="desc">A simplified purple DJ mixer with twin turntables and an LCD Audioscrobbler mark.</desc>
  <defs>
    <filter id="iconShadow" x="18" y="28" width="476" height="452" color-interpolation-filters="sRGB" filterUnits="userSpaceOnUse">
      <feDropShadow dx="0" dy="14" stdDeviation="14" flood-color="#020617" flood-opacity=".26"/>
    </filter>
  </defs>

  <g filter="url(#iconShadow)">
    <rect x="42" y="70" width="428" height="372" rx="50" fill="#15213f"/>
    <path d="M92 70h328c28 0 50 22 50 50v22H42v-22c0-28 22-50 50-50Z" fill="#263a6b"/>
    <path d="M42 366h428v26c0 28-22 50-50 50H92c-28 0-50-22-50-50v-26Z" fill="#080d22" opacity=".45"/>

    <rect x="68" y="96" width="376" height="98" rx="25" fill="#101735" opacity=".92"/>

    <g transform="translate(84 107)">
      <circle cx="18" cy="18" r="16" fill="#e7f7ff"/>
      <circle cx="58" cy="18" r="16" fill="#e7f7ff"/>
      <circle cx="18" cy="58" r="16" fill="#e7f7ff"/>
      <circle cx="58" cy="58" r="16" fill="#e7f7ff"/>
      <path d="M18 6v15M50 7l8 14M7 47l12 11M58 58h16" fill="none" stroke="#00c2ff" stroke-linecap="round" stroke-width="7"/>
    </g>

    <rect x="176" y="105" width="160" height="82" rx="18" fill="#050816"/>
    <rect x="189" y="119" width="134" height="55" rx="9" fill="#10233f"/>
    <g transform="translate(209 124) scale(.109)" fill="#76fff2" opacity=".28">
      <path d="M354.475 397.74L325.008 317.643C325.008 317.643 277.126 371.046 205.321 371.046C141.781 371.046 96.6749 315.802 96.6749 227.413C96.6749 114.167 153.753 73.6561 209.921 73.6561C290.938 73.6561 316.715 126.135 338.817 193.35L368.284 285.425C397.74 374.725 452.984 446.543 612.264 446.543C726.441 446.543 803.776 411.56 803.776 319.488C803.776 244.911 761.417 206.242 682.234 187.823L623.311 174.938C582.804 165.732 570.836 149.153 570.836 121.535C570.836 90.2306 595.689 71.8148 636.207 71.8148C680.396 71.8148 704.332 88.3894 708.018 127.979L800.09 116.928C792.725 34.0662 735.644 0 641.731 0C558.872 0 477.847 31.3044 477.847 131.662C477.847 194.27 508.231 233.864 584.642 252.276L647.258 267.002C694.213 278.053 709.859 297.386 709.859 324.095C709.859 358.154 676.717 371.966 614.109 371.966C521.12 371.966 482.454 323.17 460.352 255.952L429.969 163.887C391.306 44.193 329.615 0 207.156 0C71.8148 0 0 85.624 0 231.095C0 371.046 71.8148 446.54 200.722 446.54C304.748 446.536 354.475 397.74 354.475 397.74Z"/>
    </g>
    <g transform="translate(210 124) scale(.106)" fill="#76fff2">
      <path d="M354.475 397.74L325.008 317.643C325.008 317.643 277.126 371.046 205.321 371.046C141.781 371.046 96.6749 315.802 96.6749 227.413C96.6749 114.167 153.753 73.6561 209.921 73.6561C290.938 73.6561 316.715 126.135 338.817 193.35L368.284 285.425C397.74 374.725 452.984 446.543 612.264 446.543C726.441 446.543 803.776 411.56 803.776 319.488C803.776 244.911 761.417 206.242 682.234 187.823L623.311 174.938C582.804 165.732 570.836 149.153 570.836 121.535C570.836 90.2306 595.689 71.8148 636.207 71.8148C680.396 71.8148 704.332 88.3894 708.018 127.979L800.09 116.928C792.725 34.0662 735.644 0 641.731 0C558.872 0 477.847 31.3044 477.847 131.662C477.847 194.27 508.231 233.864 584.642 252.276L647.258 267.002C694.213 278.053 709.859 297.386 709.859 324.095C709.859 358.154 676.717 371.966 614.109 371.966C521.12 371.966 482.454 323.17 460.352 255.952L429.969 163.887C391.306 44.193 329.615 0 207.156 0C71.8148 0 0 85.624 0 231.095C0 371.046 71.8148 446.54 200.722 446.54C304.748 446.536 354.475 397.74 354.475 397.74Z"/>
    </g>

    <g>
      <rect x="362" y="116" width="13" height="58" rx="6.5" fill="#e7f7ff"/>
      <rect x="406" y="116" width="13" height="58" rx="6.5" fill="#e7f7ff"/>
      <rect x="351" y="144" width="35" height="13" rx="6.5" fill="#ff4fd8"/>
      <rect x="395" y="130" width="35" height="13" rx="6.5" fill="#ff4fd8"/>
    </g>

    <g>
      <circle cx="154" cy="326" r="99" fill="#ff4fd8"/>
      <circle cx="154" cy="326" r="81" fill="#14151d"/>
      <circle cx="154" cy="326" r="32" fill="#9ca3af"/>
      <circle cx="154" cy="326" r="23" fill="#faff70"/>
      <circle cx="154" cy="326" r="9" fill="#00c2ff"/>
      <path d="M202 218l-32 75" fill="none" stroke="#e7f7ff" stroke-linecap="round" stroke-width="8"/>
      <rect x="187" y="210" width="30" height="16" rx="4" fill="#4b5563"/>
      <circle cx="170" cy="293" r="8" fill="#dce7ef"/>
    </g>

    <g>
      <circle cx="358" cy="326" r="99" fill="#ff4fd8"/>
      <circle cx="358" cy="326" r="81" fill="#14151d"/>
      <circle cx="358" cy="326" r="32" fill="#9ca3af"/>
      <circle cx="358" cy="326" r="23" fill="#faff70"/>
      <circle cx="358" cy="326" r="9" fill="#00c2ff"/>
      <path d="M406 218l-32 75" fill="none" stroke="#e7f7ff" stroke-linecap="round" stroke-width="8"/>
      <rect x="391" y="210" width="30" height="16" rx="4" fill="#4b5563"/>
      <circle cx="374" cy="293" r="8" fill="#dce7ef"/>
    </g>
  </g>
</svg>
